<?xml version="1.0" standalone="no"?>
<!DOCTYPE svg PUBLIC "-//W3C//DTD SVG 20010904//EN"
 "http://www.w3.org/TR/2001/REC-SVG-20010904/DTD/svg10.dtd">
<svg version="1.0" xmlns="http://www.w3.org/2000/svg"
 width="1920.000000pt" height="1920.000000pt" viewBox="0 0 1920.000000 1920.000000"
 preserveAspectRatio="xMidYMid meet">
<metadata>
Created by potrace 1.11, written by Peter Selinger 2001-2013
</metadata>
<g transform="translate(0.000000,1920.000000) scale(0.100000,-0.100000)"
fill="#000000" stroke="none">
<path d="M9815 14262 c-1 -2 -27 -5 -56 -8 -133 -10 -297 -32 -374 -48 -80
-17 -178 -40 -221 -52 -28 -8 -60 -16 -70 -18 -41 -8 -274 -90 -364 -128 -105
-45 -238 -109 -315 -153 -27 -16 -63 -36 -80 -45 -215 -121 -447 -301 -656
-510 -214 -214 -329 -358 -495 -620 -68 -108 -193 -355 -244 -485 -17 -44 -36
-89 -40 -100 -30 -68 -113 -358 -135 -470 -31 -160 -59 -373 -60 -457 0 -27
-2 -48 -5 -48 -12 0 1 -449 15 -530 2 -14 7 -45 10 -70 70 -578 323 -1173 702
-1645 89 -111 318 -348 428 -444 336 -290 787 -534 1221 -661 77 -22 151 -43
166 -45 16 -3 56 -12 91 -20 34 -8 80 -17 102 -20 22 -4 47 -8 55 -10 8 -2 47
-7 85 -11 39 -3 72 -8 75 -9 10 -6 233 -18 340 -18 150 -1 334 11 447 27 54 8
118 17 143 20 130 17 425 92 515 131 17 7 41 16 55 20 25 6 34 10 100 38 259
110 439 207 625 335 84 58 236 173 270 205 11 10 37 33 58 50 127 106 357 356
429 467 61 94 131 266 144 354 29 191 24 325 -18 475 -75 276 -254 501 -501
635 -248 134 -505 162 -785 86 -115 -32 -237 -95 -346 -179 -76 -59 -92 -75
-184 -184 -332 -393 -898 -529 -1387 -335 -204 81 -386 219 -519 393 -70 92
-73 96 -121 189 -91 174 -138 365 -139 561 0 116 13 220 39 325 26 102 82 233
141 328 58 92 49 80 128 172 78 91 99 111 196 182 221 162 470 243 745 241
271 -2 520 -87 740 -252 33 -25 125 -111 205 -191 80 -80 172 -165 206 -187
120 -82 291 -154 399 -168 28 -4 68 -10 90 -14 79 -14 220 -4 341 24 68 16
174 53 188 66 6 5 18 9 28 9 10 0 18 5 18 10 0 6 6 10 13 10 17 0 163 101 212
147 211 197 325 450 330 733 3 112 -1 156 -19 255 -15 82 -73 221 -144 345
-37 65 -150 197 -282 330 -430 431 -956 729 -1555 879 -120 30 -322 66 -425
75 -30 3 -86 8 -125 12 -71 7 -424 12 -430 6z"/>
<path d="M9918 11579 c-252 -39 -464 -235 -528 -484 -15 -62 -21 -201 -10
-252 5 -21 11 -49 14 -63 10 -55 48 -139 89 -200 92 -133 221 -225 378 -265
62 -16 217 -23 268 -11 324 74 529 319 532 636 3 346 -276 635 -621 645 -41 1
-96 -2 -122 -6z"/>
</g>
</svg>
