<?xml version="1.0" encoding="utf-8"?>
<!-- Generator: Adobe Illustrator 21.1.0, SVG Export Plug-In . SVG Version: 6.00 Build 0)  -->
<svg version="1.1" id="Layer_1" xmlns="http://www.w3.org/2000/svg" xmlns:xlink="http://www.w3.org/1999/xlink" x="0px" y="0px"
	 width="225px" height="225px" viewBox="0 0 225 225" style="enable-background:new 0 0 225 225;" xml:space="preserve">
<style type="text/css">
	.st0{fill:#C5BFF6;}
	.st1{fill:#CFD8DC;}
	.st2{fill:#8D86C9;}
	.st3{fill:#725AC1;}
</style>
<title>DappHub-logo</title>
<g id="Page-1">
	<g id="DappHub-v1">
		<g id="Group-2">
			<g id="Group">
				<g id="Group-2-Copy-4">
					<path id="Rectangle-2-Copy-16" class="st0" d="M40,94.4h9.3c2.2,0,3.9,1.7,3.9,3.9v9.4c0,2.2-1.7,3.9-3.9,3.9H40
						c-2.2,0-3.9-1.7-3.9-3.9v-9.4C36.1,96.1,37.8,94.4,40,94.4z"/>
					<path id="Rectangle-2-Copy-17" class="st1" d="M58.9,113.4h9.3c2.2,0,3.9,1.7,3.9,3.9v9.4c0,2.2-1.7,3.9-3.9,3.9h-9.3
						c-2.2,0-3.9-1.7-3.9-3.9v-9.4C55,115.1,56.7,113.4,58.9,113.4z"/>
					<path id="Rectangle-2-Copy-18" class="st1" d="M40,132.6h9.3c2.2,0,3.9,1.7,3.9,3.9v9.4c0,2.2-1.7,3.9-3.9,3.9H40
						c-2.2,0-3.9-1.7-3.9-3.9v-9.4C36.1,134.3,37.8,132.6,40,132.6z"/>
					<path id="Rectangle-2-Copy-19" class="st2" d="M58.9,151.6h9.3c2.2,0,3.9,1.7,3.9,3.9v9.4c0,2.2-1.7,3.9-3.9,3.9h-9.3
						c-2.2,0-3.9-1.7-3.9-3.9v-9.4C55,153.3,56.7,151.6,58.9,151.6z"/>
					<path id="Rectangle-2-Copy-20" class="st1" d="M77.9,151.6h9.3c2.2,0,3.9,1.7,3.9,3.9v9.4c0,2.2-1.7,3.9-3.9,3.9h-9.3
						c-2.2,0-3.9-1.7-3.9-3.9v-9.4C74,153.3,75.7,151.6,77.9,151.6z"/>
					<path id="Rectangle-2-Copy-21" class="st1" d="M96.7,132.6h9.3c2.2,0,3.9,1.7,3.9,3.9v9.4c0,2.2-1.7,3.9-3.9,3.9h-9.3
						c-2.2,0-3.9-1.7-3.9-3.9v-9.4C92.9,134.3,94.6,132.6,96.7,132.6z"/>
					<path id="Rectangle-2-Copy-22" class="st0" d="M115.6,113.4h9.3c2.2,0,3.9,1.7,3.9,3.9v9.4c0,2.2-1.7,3.9-3.9,3.9h-9.3
						c-2.2,0-3.9-1.7-3.9-3.9v-9.4C111.7,115.1,113.4,113.4,115.6,113.4z"/>
					<path id="Rectangle-2-Copy-23" class="st1" d="M134.6,94.4h9.3c2.2,0,3.9,1.7,3.9,3.9v9.4c0,2.2-1.7,3.9-3.9,3.9h-9.3
						c-2.2,0-3.9-1.7-3.9-3.9v-9.4C130.7,96.1,132.4,94.4,134.6,94.4z"/>
					<path id="Rectangle-2-Copy-24" class="st2" d="M134.6,132.6h9.3c2.2,0,3.9,1.7,3.9,3.9v9.4c0,2.2-1.7,3.9-3.9,3.9h-9.3
						c-2.2,0-3.9-1.7-3.9-3.9v-9.4C130.7,134.3,132.4,132.6,134.6,132.6z"/>
					<path id="Rectangle-2-Copy-25" class="st1" d="M134.6,151.6h9.3c2.2,0,3.9,1.7,3.9,3.9v9.4c0,2.2-1.7,3.9-3.9,3.9h-9.3
						c-2.2,0-3.9-1.7-3.9-3.9v-9.4C130.7,153.3,132.4,151.6,134.6,151.6z"/>
					<path id="Rectangle-2-Copy-26" class="st1" d="M172.3,151.6h9.3c2.2,0,3.9,1.7,3.9,3.9v9.4c0,2.2-1.7,3.9-3.9,3.9h-9.3
						c-2.2,0-3.9-1.7-3.9-3.9v-9.4C168.5,153.3,170.2,151.6,172.3,151.6z"/>
					<path id="Rectangle-2-Copy-27" class="st1" d="M172.3,113.4h9.3c2.2,0,3.9,1.7,3.9,3.9v9.4c0,2.2-1.7,3.9-3.9,3.9h-9.3
						c-2.2,0-3.9-1.7-3.9-3.9v-9.4C168.5,115.1,170.2,113.4,172.3,113.4z"/>
					<path id="Rectangle-2-Copy-28" class="st3" d="M172.3,75.2h9.3c2.2,0,3.9,1.7,3.9,3.9v9.4c0,2.2-1.7,3.9-3.9,3.9h-9.3
						c-2.2,0-3.9-1.7-3.9-3.9v-9.4C168.5,77.1,170.2,75.2,172.3,75.2z"/>
					<path id="Rectangle-2-Copy-30" class="st1" d="M153.5,94.4h9.3c2.2,0,3.9,1.7,3.9,3.9v9.4c0,2.2-1.7,3.9-3.9,3.9h-9.3
						c-2.2,0-3.9-1.7-3.9-3.9v-9.4C149.6,96.1,151.3,94.4,153.5,94.4z"/>
					<path id="Rectangle-2-Copy-29" class="st1" d="M172.3,56.2h9.3c2.2,0,3.9,1.7,3.9,3.9v9.4c0,2.2-1.7,3.9-3.9,3.9h-9.3
						c-2.2,0-3.9-1.7-3.9-3.9v-9.4C168.5,57.9,170.2,56.2,172.3,56.2z"/>
					<path id="Rectangle-2-Copy-31" class="st1" d="M134.6,56.2h9.3c2.2,0,3.9,1.7,3.9,3.9v9.4c0,2.2-1.7,3.9-3.9,3.9h-9.3
						c-2.2,0-3.9-1.7-3.9-3.9v-9.4C130.7,57.9,132.4,56.2,134.6,56.2z"/>
					<path id="Rectangle-2-Copy-32" class="st3" d="M77.9,56.2h9.3c2.2,0,3.9,1.7,3.9,3.9v9.4c0,2.2-1.7,3.9-3.9,3.9h-9.3
						c-2.2,0-3.9-1.7-3.9-3.9v-9.4C74,57.9,75.7,56.2,77.9,56.2z"/>
					<path id="Rectangle-2-Copy-33" class="st1" d="M96.7,75.2h9.3c2.2,0,3.9,1.7,3.9,3.9v9.4c0,2.2-1.7,3.9-3.9,3.9h-9.3
						c-2.2,0-3.9-1.7-3.9-3.9v-9.4C92.9,77.1,94.6,75.2,96.7,75.2z"/>
				</g>
			</g>
		</g>
	</g>
</g>
</svg>
